<svg width="24" height="24" viewBox="0 0 24 24" fill="none" xmlns="http://www.w3.org/2000/svg">
<path d="M8.88667 21.3334C9.7151 21.3334 10.3867 20.6618 10.3867 19.8334C10.3867 19.0049 9.7151 18.3334 8.88667 18.3334C8.05825 18.3334 7.38667 19.0049 7.38667 19.8334C7.38667 20.6618 8.05825 21.3334 8.88667 21.3334Z" fill="#359740"/>
<path d="M18 21.3334C18.8284 21.3334 19.5 20.6618 19.5 19.8334C19.5 19.0049 18.8284 18.3334 18 18.3334C17.1716 18.3334 16.5 19.0049 16.5 19.8334C16.5 20.6618 17.1716 21.3334 18 21.3334Z" fill="#359740"/>
<path d="M22.0533 3.58003C21.9913 3.50356 21.9131 3.44177 21.8243 3.39912C21.7356 3.35647 21.6385 3.33402 21.54 3.33337H7.66L8.09333 4.6667H20.6667L18.8867 12.6667H8.88666L5.84 3.02003C5.80704 2.91767 5.74982 2.8248 5.6732 2.74935C5.59658 2.67389 5.50285 2.61809 5.4 2.5867L2.66666 1.7467C2.58262 1.72087 2.49431 1.71185 2.40678 1.72015C2.31924 1.72846 2.2342 1.75392 2.15651 1.79509C1.99961 1.87823 1.88216 2.02029 1.83 2.19003C1.77784 2.35977 1.79524 2.54328 1.87838 2.70018C1.96153 2.85709 2.10359 2.97454 2.27333 3.0267L4.66666 3.76003L7.72666 13.4267L6.63333 14.32L6.54666 14.4067C6.27622 14.7184 6.12293 15.1146 6.1132 15.5271C6.10346 15.9396 6.23789 16.3426 6.49333 16.6667C6.67504 16.8877 6.90594 17.0631 7.16756 17.1788C7.42918 17.2946 7.71426 17.3475 8 17.3334H19.1267C19.3035 17.3334 19.473 17.2631 19.5981 17.1381C19.7231 17.0131 19.7933 16.8435 19.7933 16.6667C19.7933 16.4899 19.7231 16.3203 19.5981 16.1953C19.473 16.0703 19.3035 16 19.1267 16H7.89333C7.81656 15.9974 7.74177 15.975 7.67617 15.9351C7.61057 15.8951 7.55639 15.8389 7.51886 15.7719C7.48133 15.7048 7.46172 15.6293 7.46192 15.5525C7.46211 15.4757 7.48212 15.4002 7.52 15.3334L9.12666 14H19.42C19.5741 14.0038 19.7248 13.954 19.8463 13.8592C19.9679 13.7644 20.0528 13.6304 20.0867 13.48L22.2 4.1467C22.2203 4.04731 22.2176 3.94461 22.1922 3.84641C22.1668 3.74821 22.1193 3.6571 22.0533 3.58003Z" fill="#359740"/>
</svg>
